<?xml version="1.0" encoding="UTF-8" standalone="no"?>
<!-- Created with Inkscape (http://www.inkscape.org/) -->

<svg
   width="100mm"
   height="100mm"
   viewBox="0 0 100 100"
   version="1.1"
   id="svg1"
   xmlns="http://www.w3.org/2000/svg"
   xmlns:svg="http://www.w3.org/2000/svg">
  <defs
     id="defs1" />
  <g
     id="layer1">
    <ellipse
       style="fill:#ffffff;fill-opacity:1;stroke-width:0.230864"
       id="path4"
       cx="50"
       cy="50"
       rx="45.525635"
       ry="43.017529" />
    <path
       fill-rule="evenodd"
       clip-rule="evenodd"
       d="m 50.000015,11.046944 c -23.251214,0 -42.083643,17.62961 -42.083643,39.395777 0,17.432632 12.046441,32.156801 28.774691,37.376744 2.10418,0.344711 2.89325,-0.837162 2.89325,-1.871301 0,-0.935648 -0.05262,-4.038066 -0.05262,-7.337466 -10.573515,1.822059 -13.308951,-2.412989 -14.150623,-4.629001 -0.473442,-1.13263 -2.52502,-4.629003 -4.313575,-5.564655 -1.472926,-0.73867 -3.577109,-2.560725 -0.05261,-2.609969 3.314089,-0.04925 5.681292,2.856193 6.470361,4.038067 3.787527,5.958611 9.837052,4.284291 12.256862,3.250151 0.36823,-2.560724 1.472925,-4.28429 2.682832,-5.269186 -9.363612,-0.984893 -19.148058,-4.382777 -19.148058,-19.451664 0,-4.28429 1.63074,-7.82991 4.313574,-10.587615 -0.420838,-0.984894 -1.893765,-5.022962 0.420835,-10.439881 0,0 3.524505,-1.034139 11.573002,4.038068 3.366692,-0.886405 6.943802,-1.329607 10.520911,-1.329607 3.57711,0 7.15422,0.443202 10.520911,1.329607 8.048497,-5.12145 11.573002,-4.038068 11.573002,-4.038068 2.314601,5.416919 0.841674,9.454987 0.420838,10.439881 2.682832,2.757705 4.313572,6.254078 4.313572,10.587615 0,15.11813 -9.837051,18.466771 -19.200663,19.451664 1.525532,1.23112 2.840648,3.594866 2.840648,7.288221 0,5.269183 -0.05262,9.50423 -0.05262,10.833838 0,1.034139 0.78907,2.265257 2.893255,1.871301 16.62304,-5.219943 28.669481,-19.99336 28.669481,-37.376744 0,-21.766167 -18.832428,-39.395777 -42.083641,-39.395777 z"
       fill="#1b1f23"
       id="path1"
       style="fill:#000000;fill-opacity:1;stroke-width:0.0795263" />
    <circle
       style="fill:#455aff;fill-opacity:0.380618;stroke-width:0.537118"
       id="path3"
       cx="38.10368"
       cy="39.658482"
       r="27.497818" />
    <path
       d="m 70.626572,61.816183 h -4.151979 l -2.000687,-1.41908 c 5.15056,-5.991459 7.722232,-12.711524 7.722232,-21.173143 0,-18.867838 -15.293978,-34.1618161 -34.161815,-34.1618161 -18.867858,0 -34.1618361,15.2939781 -34.1618361,34.1618161 0,18.867838 15.2939781,34.161835 34.1618361,34.161835 8.461618,0 15.181665,-2.042505 21.173123,-7.193065 l 1.419081,1.47152 v 4.151979 l 26.278196,26.225897 9.947607,-9.947607 z m -32.592328,-1.5875 c -13.08662,0 -21.004665,-7.918046 -21.004665,-21.004662 0,-13.0866 7.918045,-21.004666 21.004665,-21.004666 13.086597,0 21.004664,7.918066 21.004664,21.004666 0,13.086616 -7.918067,21.004662 -21.004664,21.004662 z"
       id="path2"
       style="fill:#00ae30;fill-opacity:1;stroke-width:5.25566" />
  </g>
</svg>
